<?xml version="1.0" encoding="UTF-8" standalone="no"?>
<svg
   xmlns:dc="http://purl.org/dc/elements/1.1/"
   xmlns:cc="http://creativecommons.org/ns#"
   xmlns:rdf="http://www.w3.org/1999/02/22-rdf-syntax-ns#"
   xmlns:svg="http://www.w3.org/2000/svg"
   xmlns="http://www.w3.org/2000/svg"
   xmlns:sodipodi="http://sodipodi.sourceforge.net/DTD/sodipodi-0.dtd"
   xmlns:inkscape="http://www.inkscape.org/namespaces/inkscape"
   version="1.1"
   id="Layer_1"
   x="0px"
   y="0px"
   viewBox="0 0 107.07 122.88"
   style="enable-background:new 0 0 107.07 122.88"
   xml:space="preserve"
   sodipodi:docname="plus.svg"
   inkscape:version="1.0.1 (3bc2e813f5, 2020-09-07)"><metadata
     id="metadata11"><rdf:RDF><cc:Work
         rdf:about=""><dc:format>image/svg+xml</dc:format><dc:type
           rdf:resource="http://purl.org/dc/dcmitype/StillImage" /></cc:Work></rdf:RDF></metadata><defs
     id="defs9" /><sodipodi:namedview
     pagecolor="#ffffff"
     bordercolor="#666666"
     borderopacity="1"
     objecttolerance="10"
     gridtolerance="10"
     guidetolerance="10"
     inkscape:pageopacity="0"
     inkscape:pageshadow="2"
     inkscape:window-width="2560"
     inkscape:window-height="1408"
     id="namedview7"
     showgrid="false"
     inkscape:zoom="7.7799481"
     inkscape:cx="53.792071"
     inkscape:cy="61.439999"
     inkscape:window-x="0"
     inkscape:window-y="0"
     inkscape:window-maximized="1"
     inkscape:current-layer="Layer_1"
     inkscape:document-rotation="0" /><g
     id="g4"
     transform="matrix(0.76019741,0,0,0.76019741,12.837832,14.73347)"
     style="fill:#ffffff;fill-opacity:1"><path
       d="m 31.54,86.95 c -1.74,0 -3.16,-1.43 -3.16,-3.19 0,-1.76 1.41,-3.19 3.16,-3.19 h 20.5 c 1.74,0 3.16,1.43 3.16,3.19 0,1.76 -1.41,3.19 -3.16,3.19 z m 0,-44.68 c -1.74,0 -3.15,-1.41 -3.15,-3.15 0,-1.74 1.41,-3.15 3.15,-3.15 h 41.61 c 1.74,0 3.15,1.41 3.15,3.15 0,1.74 -1.41,3.15 -3.15,3.15 z m 25.31,74.31 c 1.74,0 3.15,1.41 3.15,3.15 0,1.74 -1.41,3.15 -3.15,3.15 H 7.33 c -2.02,0 -3.85,-0.82 -5.18,-2.15 C 0.82,119.4 0,117.57 0,115.55 V 7.33 C 0,5.31 0.82,3.48 2.15,2.15 3.48,0.82 5.31,0 7.33,0 h 90.02 c 2.02,0 3.85,0.82 5.18,2.15 1.33,1.33 2.15,3.16 2.15,5.18 V 72.6 c 0,1.74 -1.41,3.15 -3.15,3.15 -1.74,0 -3.15,-1.41 -3.15,-3.15 V 7.33 C 98.38,7.05 98.26,6.79 98.08,6.6 97.89,6.41 97.63,6.3 97.35,6.3 H 7.33 C 7.05,6.3 6.79,6.42 6.6,6.6 6.42,6.8 6.3,7.05 6.3,7.33 v 108.21 c 0,0.28 0.12,0.54 0.3,0.73 0.19,0.19 0.45,0.3 0.73,0.3 H 56.85 Z M 83.35,83.7 c 0,-1.73 1.41,-3.14 3.14,-3.14 1.73,0 3.14,1.41 3.14,3.14 l -0.04,14.36 14.34,0.04 c 1.73,0 3.14,1.41 3.14,3.14 0,1.73 -1.41,3.14 -3.14,3.14 l -14.35,-0.04 -0.04,14.34 c 0,1.73 -1.41,3.14 -3.14,3.14 -1.73,0 -3.14,-1.41 -3.14,-3.14 l 0.04,-14.35 -14.34,-0.04 c -1.73,0 -3.14,-1.41 -3.14,-3.14 0,-1.73 1.41,-3.14 3.14,-3.14 l 14.36,0.04 z M 31.54,64.59 c -1.74,0 -3.15,-1.41 -3.15,-3.15 0,-1.74 1.41,-3.15 3.15,-3.15 h 41.61 c 1.74,0 3.15,1.41 3.15,3.15 0,1.74 -1.41,3.15 -3.15,3.15 z"
       id="path2"
       style="fill:#ffffff;fill-opacity:1" /></g></svg>
